<?xml version="1.0" encoding="utf-8"?>
<svg xmlns="http://www.w3.org/2000/svg" width="349.76944" height="350.07416" viewBox="0 0 92.543162 92.62379" version="1.1" id="svg8" xmlns:bx="https://boxy-svg.com">
  <g id="layer1" transform="translate(-64.627452,-57.107168)">
    <path d="M 110.899 103.419 m -46.272 0 a 46.272 46.312 0 1 0 92.544 0 a 46.272 46.312 0 1 0 -92.544 0 Z M 110.899 103.419 m -42 0 a 42 42 0 0 1 84 0 a 42 42 0 0 1 -84 0 Z" bx:shape="ring 110.899 103.419 42 42 46.272 46.312 1@4da2f1d5" style="stroke: rgb(0, 0, 0); stroke-width: 0px; fill: rgb(255, 255, 255);"/>
    <g transform="matrix(1.307577, 0, 0, 1.30692, -32.416626, -37.085743)">
      <path id="path869" d="M 121.218 122.131 L 127.171 119.644 L 127.244 115.9 C 127.285 113.841 127.212 112.157 127.083 112.157 C 126.954 112.157 123.217 113.629 118.777 115.428 L 110.706 118.699 L 110.222 117.875 C 109.956 117.422 109.286 116.337 108.734 115.464 L 107.729 113.877 L 107.726 120.804 L 107.724 127.731 L 111.494 126.175 C 113.568 125.319 117.943 123.5 121.218 122.131 L 121.218 122.131 Z" style="fill:#ffffff;fill-opacity:1;stroke-width:0.26458335"/>
      <path id="path867" d="M 105.872 119.036 C 105.872 113.284 105.786 110.834 105.583 110.834 C 105.424 110.834 103.278 111.497 100.814 112.307 L 96.334 113.78 L 94.621 112.416 L 92.907 111.053 L 92.907 114.648 L 92.907 118.243 L 94.279 119.235 C 98.832 122.526 105.505 127.201 105.674 127.218 C 105.783 127.229 105.872 123.547 105.872 119.036 Z" style="fill-opacity: 1; stroke-width: 0.264583; fill: rgb(255, 255, 255);"/>
      <path id="path865" d="M 129.226 109.276 C 129.387 109.119 128.208 102.71 127.964 102.423 C 127.916 102.365 111.657 108.387 108.452 109.65 C 108.197 109.75 107.989 109.927 107.989 110.044 C 107.989 110.225 110.472 114.556 111.574 116.296 C 111.929 116.857 112.023 116.824 120.478 113.167 C 125.178 111.135 129.114 109.383 129.226 109.276 L 129.226 109.276 Z" style="fill:#ffffff;fill-opacity:1;stroke-width:0.26458335"/>
      <path id="path863" d="M 102.4 110.248 L 104.088 109.614 L 97.902 104.327 C 94.5 101.419 91.572 98.951 91.395 98.842 C 91.076 98.645 85.896 102.699 85.896 103.145 C 85.896 103.263 88.325 105.383 91.294 107.857 L 96.693 112.355 L 98.703 111.618 C 99.808 111.213 101.472 110.597 102.4 110.248 Z" style="fill:#ffffff;fill-opacity:1;stroke-width:0.26458335"/>
      <path id="path861" d="M 115.92 105.281 C 115.911 105.081 110.832 102.894 110.378 102.895 C 109.669 102.897 102.135 106.145 102.352 106.355 C 102.469 106.469 103.375 107.205 104.365 107.991 L 106.165 109.42 L 111.045 107.419 C 113.73 106.318 115.923 105.356 115.92 105.281 Z" style="fill:#ffffff;fill-opacity:1;stroke-width:0.26458335"/>
      <path id="path859" d="M 105.802 103.51 L 109.576 102.008 L 109.576 100.6 C 109.576 99.826 109.487 99.19 109.378 99.187 C 109.269 99.184 107.423 99.924 105.277 100.831 L 101.374 102.48 L 101.374 103.746 C 101.374 104.576 101.487 105.013 101.701 105.013 C 101.881 105.013 103.727 104.337 105.802 103.51 L 105.802 103.51 Z" style="fill:#ffffff;fill-opacity:1;stroke-width:0.26458335"/>
      <path id="path857" d="M 117.3 103.095 C 117.237 102.185 117.166 101.417 117.141 101.387 C 117.116 101.357 115.762 100.738 114.13 100.011 L 111.164 98.689 L 111.164 100.131 C 111.164 100.925 111.15 101.663 111.133 101.772 C 111.108 101.935 116.773 104.667 117.266 104.73 C 117.348 104.74 117.363 104.004 117.3 103.095 L 117.3 103.095 Z" style="fill:#ffffff;fill-opacity:1;stroke-width:0.26458335"/>
      <path id="path855" d="M 100.303 103.227 L 100.29 101.97 L 96.953 99.589 C 92.554 96.451 92.854 96.6 92.955 97.595 C 93.026 98.287 93.61 98.924 96.479 101.434 C 98.371 103.089 100.008 104.453 100.117 104.464 C 100.226 104.475 100.31 103.918 100.303 103.227 L 100.303 103.227 Z" style="fill:#ffffff;fill-opacity:1;stroke-width:0.26458335"/>
      <path id="path853" d="M 123.117 102.836 L 126.471 101.527 L 126.556 99.433 C 126.603 98.281 126.613 97.339 126.578 97.34 C 126.543 97.34 124.667 98.261 122.411 99.387 L 118.307 101.433 L 118.311 102.363 C 118.313 102.875 118.387 103.565 118.476 103.896 C 118.667 104.607 118.46 104.654 123.117 102.836 L 123.117 102.836 Z" style="fill:#ffffff;fill-opacity:1;stroke-width:0.26458335"/>
      <path id="path851" d="M 104.896 99.827 C 106.815 99.012 108.47 98.266 108.574 98.17 C 108.768 97.99 100.353 92.578 99.878 92.578 C 99.357 92.578 93.04 95.159 93.082 95.356 C 93.12 95.536 101.106 101.309 101.317 101.309 C 101.366 101.309 102.976 100.642 104.896 99.827 Z" style="fill:#ffffff;fill-opacity:1;stroke-width:0.26458335"/>
      <path id="path849" d="M 122.673 98.271 C 123.837 97.733 125.076 97.18 125.427 97.043 C 126.017 96.811 125.86 96.667 123.26 95.072 L 120.457 93.352 L 116.009 95.588 L 111.56 97.824 L 112.487 98.218 C 112.996 98.435 114.412 99.026 115.634 99.532 L 117.855 100.452 L 119.206 99.85 C 119.949 99.519 121.509 98.808 122.673 98.271 L 122.673 98.271 Z" style="fill:#ffffff;fill-opacity:1;stroke-width:0.26458335"/>
      <path id="path847" d="M 131.779 94.327 C 131.596 94.156 120.44 88.609 120.28 88.609 C 120.199 88.609 120.168 89.234 120.212 89.998 L 120.292 91.387 L 123.99 93.689 C 127.858 96.097 128.362 96.536 128.362 97.497 C 128.362 97.977 128.68 97.753 130.125 96.256 C 131.095 95.251 131.839 94.383 131.779 94.327 L 131.779 94.327 Z" style="fill:#ffffff;fill-opacity:1;stroke-width:0.26458335"/>
      <path id="path845" d="M 95.896 92.784 L 99.919 91.065 L 101.025 91.821 C 101.633 92.237 102.199 92.578 102.282 92.578 C 102.365 92.578 102.432 91.65 102.432 90.516 L 102.432 88.454 L 104.69 87.438 C 105.931 86.878 106.907 86.381 106.858 86.332 C 106.79 86.264 99.009 89.333 90.342 92.847 L 89.761 93.083 L 90.739 95.194 L 91.717 97.306 L 91.795 95.905 L 91.873 94.503 L 95.896 92.784 Z" style="fill:#ffffff;fill-opacity:1;stroke-width:0.26458335"/>
      <path id="path843" d="M 109.77 93.586 C 109.623 93.223 103.801 90.063 103.617 90.247 C 103.559 90.305 103.596 91.115 103.699 92.046 L 103.888 93.74 L 106.666 95.409 L 109.444 97.079 L 109.677 95.506 C 109.805 94.641 109.847 93.777 109.77 93.586 L 109.77 93.586 Z" style="fill:#ffffff;fill-opacity:1;stroke-width:0.26458335"/>
      <path id="path841" d="M 115.029 94.807 L 118.837 92.803 L 118.837 91.235 C 118.837 90.146 118.735 89.673 118.506 89.688 C 118.324 89.699 116.568 90.503 114.603 91.474 L 111.031 93.239 L 110.953 95.025 C 110.91 96.007 110.953 96.811 111.048 96.811 C 111.143 96.811 112.934 95.909 115.029 94.807 L 115.029 94.807 Z" style="fill:#ffffff;fill-opacity:1;stroke-width:0.26458335"/>
      <path id="path837" d="M 114.339 90.478 L 117.91 88.671 L 116.984 88.281 C 116.475 88.067 115.025 87.441 113.762 86.891 L 111.465 85.891 L 108.206 87.297 C 106.413 88.071 104.845 88.79 104.721 88.895 C 104.497 89.085 109.999 92.325 110.502 92.299 C 110.648 92.291 112.374 91.472 114.339 90.478 L 114.339 90.478 Z" style="fill:#ffffff;fill-opacity:1;stroke-width:0.26458335"/>
    </g>
  </g>
</svg>